0
SECTION
2
HEADER
9
$INSUNITS
70
4
9
$ACADVER
1
AC1014
9
$HANDSEED
5
FFFF
0
ENDSEC
0
SECTION
2
TABLES
0
TABLE
2
VPORT
5
8
100
AcDbSymbolTable
0
ENDTAB
0
TABLE
2
LTYPE
5
5
100
AcDbSymbolTable
0
LTYPE
5
14
100
AcDbSymbolTableRecord
100
AcDbLinetypeTableRecord
2
BYBLOCK
70
0
0
LTYPE
5
15
100
AcDbSymbolTableRecord
100
AcDbLinetypeTableRecord
2
BYLAYER
70
0
0
ENDTAB
0
TABLE
2
LAYER
5
2
100
AcDbSymbolTable
70
2
0
LAYER
5
50
100
AcDbSymbolTableRecord
100
AcDbLayerTableRecord
2
0
70
0
6
CONTINUOUS
0
ENDTAB
0
TABLE
2
STYLE
5
3
100
AcDbSymbolTable
70
1
0
STYLE
5
11
100
AcDbSymbolTableRecord
100
AcDbTextStyleTableRecord
2
STANDARD
70
0
0
ENDTAB
0
TABLE
2
VIEW
5
6
100
AcDbSymbolTable
70
0
0
ENDTAB
0
TABLE
2
UCS
5
7
100
AcDbSymbolTable
70
0
0
ENDTAB
0
TABLE
2
APPID
5
9
100
AcDbSymbolTable
70
2
0
APPID
5
12
100
AcDbSymbolTableRecord
100
AcDbRegAppTableRecord
2
ACAD
70
0
0
ENDTAB
0
TABLE
2
DIMSTYLE
5
A
100
AcDbSymbolTable
70
1
0
ENDTAB
0
TABLE
2
BLOCK_RECORD
5
1
100
AcDbSymbolTable
70
1
0
BLOCK_RECORD
5
1F
100
AcDbSymbolTableRecord
100
AcDbBlockTableRecord
2
*MODEL_SPACE
0
BLOCK_RECORD
5
1B
100
AcDbSymbolTableRecord
100
AcDbBlockTableRecord
2
*PAPER_SPACE
0
ENDTAB
0
ENDSEC
0
SECTION
2
BLOCKS
0
BLOCK
5
20
100
AcDbEntity
100
AcDbBlockBegin
2
*MODEL_SPACE
0
ENDBLK
5
21
100
AcDbEntity
100
AcDbBlockEnd
0
BLOCK
5
1C
100
AcDbEntity
100
AcDbBlockBegin
2
*PAPER_SPACE
0
ENDBLK
5
1D
100
AcDbEntity
100
AcDbBlockEnd
0
ENDSEC
0
SECTION
2
ENTITIES
0
CIRCLE
5
100
100
AcDbEntity
8
0
100
AcDbCircle
10
5.1899999999997863
20
-50.500000000000007
30
0
40
0.4065000000000038
210
6.7034987460370438e-64
220
-1.0947644252537636e-47
230
1
0
CIRCLE
5
101
100
AcDbEntity
8
0
100
AcDbCircle
10
12.809999999999807
20
-47.960000000000008
30
0
40
0.40649999999999936
210
0
220
-0
230
1
0
CIRCLE
5
102
100
AcDbEntity
8
0
100
AcDbCircle
10
12.809999999999803
20
-53.04000000000002
30
0
40
0.4065000000000038
210
6.7034987460370438e-64
220
-1.0947644252537636e-47
230
1
0
CIRCLE
5
103
100
AcDbEntity
8
0
100
AcDbCircle
10
10.269999999999799
20
-47.960000000000008
30
0
40
0.40649999999999936
210
0
220
-0
230
1
0
CIRCLE
5
104
100
AcDbEntity
8
0
100
AcDbCircle
10
10.269999999999797
20
-53.04000000000002
30
0
40
0.4065000000000038
210
6.7034987460370438e-64
220
-1.0947644252537636e-47
230
1
0
CIRCLE
5
105
100
AcDbEntity
8
0
100
AcDbCircle
10
7.7299999999997926
20
-47.960000000000008
30
0
40
0.40649999999999936
210
0
220
-0
230
1
0
CIRCLE
5
106
100
AcDbEntity
8
0
100
AcDbCircle
10
7.7299999999997908
20
-53.040000000000006
30
0
40
0.4065000000000038
210
6.7034987460370438e-64
220
-1.0947644252537636e-47
230
1
0
CIRCLE
5
107
100
AcDbEntity
8
0
100
AcDbCircle
10
7.7299999999997917
20
-55.580000000000013
30
0
40
0.4065000000000038
210
6.7034987460370438e-64
220
-1.0947644252537636e-47
230
1
0
CIRCLE
5
108
100
AcDbEntity
8
0
100
AcDbCircle
10
25.189999999999824
20
-50.500000000000007
30
0
40
0.4065000000000038
210
6.7034987460370438e-64
220
-1.0947644252537636e-47
230
1
0
CIRCLE
5
109
100
AcDbEntity
8
0
100
AcDbCircle
10
32.809999999999846
20
-47.960000000000008
30
0
40
0.40649999999999936
210
0
220
-0
230
1
0
CIRCLE
5
110
100
AcDbEntity
8
0
100
AcDbCircle
10
32.809999999999839
20
-53.04000000000002
30
0
40
0.4065000000000038
210
6.7034987460370438e-64
220
-1.0947644252537636e-47
230
1
0
CIRCLE
5
111
100
AcDbEntity
8
0
100
AcDbCircle
10
30.269999999999836
20
-50.500000000000007
30
0
40
0.4065000000000038
210
6.7034987460370438e-64
220
-1.0947644252537636e-47
230
1
0
CIRCLE
5
112
100
AcDbEntity
8
0
100
AcDbCircle
10
27.729999999999833
20
-45.420000000000009
30
0
40
0.40649999999999936
210
0
220
-0
230
1
0
CIRCLE
5
113
100
AcDbEntity
8
0
100
AcDbCircle
10
27.729999999999833
20
-50.500000000000007
30
0
40
0.4065000000000038
210
6.7034987460370438e-64
220
-1.0947644252537636e-47
230
1
0
CIRCLE
5
114
100
AcDbEntity
8
0
100
AcDbCircle
10
30.269999999999836
20
-55.580000000000013
30
0
40
0.4065000000000038
210
6.7034987460370438e-64
220
-1.0947644252537636e-47
230
1
0
CIRCLE
5
115
100
AcDbEntity
8
0
100
AcDbCircle
10
53.189999999999877
20
-47.960000000000008
30
0
40
0.40649999999999936
210
0
220
-0
230
1
0
CIRCLE
5
116
100
AcDbEntity
8
0
100
AcDbCircle
10
53.189999999999877
20
-53.040000000000006
30
0
40
0.4065000000000038
210
6.7034987460370438e-64
220
-1.0947644252537636e-47
230
1
0
CIRCLE
5
117
100
AcDbEntity
8
0
100
AcDbCircle
10
60.809999999999896
20
-50.500000000000007
30
0
40
0.4065000000000038
210
6.7034987460370438e-64
220
-1.0947644252537636e-47
230
1
0
CIRCLE
5
118
100
AcDbEntity
8
0
100
AcDbCircle
10
58.269999999999882
20
-45.420000000000002
30
0
40
0.40649999999999936
210
0
220
-0
230
1
0
CIRCLE
5
119
100
AcDbEntity
8
0
100
AcDbCircle
10
58.269999999999882
20
-50.500000000000007
30
0
40
0.4065000000000038
210
6.7034987460370438e-64
220
-1.0947644252537636e-47
230
1
0
CIRCLE
5
120
100
AcDbEntity
8
0
100
AcDbCircle
10
55.72999999999989
20
-45.420000000000002
30
0
40
0.40649999999999936
210
0
220
-0
230
1
0
CIRCLE
5
121
100
AcDbEntity
8
0
100
AcDbCircle
10
55.72999999999989
20
-50.500000000000007
30
0
40
0.4065000000000038
210
6.7034987460370438e-64
220
-1.0947644252537636e-47
230
1
0
CIRCLE
5
122
100
AcDbEntity
8
0
100
AcDbCircle
10
58.269999999999882
20
-55.580000000000013
30
0
40
0.4065000000000038
210
6.7034987460370438e-64
220
-1.0947644252537636e-47
230
1
0
CIRCLE
5
123
100
AcDbEntity
8
0
100
AcDbCircle
10
73.189999999999912
20
-47.960000000000008
30
0
40
0.40649999999999936
210
0
220
-0
230
1
0
CIRCLE
5
124
100
AcDbEntity
8
0
100
AcDbCircle
10
78.269999999999925
20
-45.420000000000002
30
0
40
0.40649999999999936
210
0
220
-0
230
1
0
CIRCLE
5
125
100
AcDbEntity
8
0
100
AcDbCircle
10
75.729999999999919
20
-45.420000000000002
30
0
40
0.40649999999999936
210
0
220
-0
230
1
0
CIRCLE
5
126
100
AcDbEntity
8
0
100
AcDbCircle
10
75.729999999999919
20
-47.960000000000008
30
0
40
0.40649999999999936
210
0
220
-0
230
1
0
CIRCLE
5
127
100
AcDbEntity
8
0
100
AcDbCircle
10
78.269999999999925
20
-47.960000000000008
30
0
40
0.40649999999999936
210
0
220
-0
230
1
0
CIRCLE
5
128
100
AcDbEntity
8
0
100
AcDbCircle
10
80.809999999999945
20
-47.960000000000008
30
0
40
0.40649999999999936
210
0
220
-0
230
1
0
CIRCLE
5
129
100
AcDbEntity
8
0
100
AcDbCircle
10
55.72999999999989
20
-55.580000000000013
30
0
40
0.4065000000000038
210
6.7034987460370438e-64
220
-1.0947644252537636e-47
230
1
0
CIRCLE
5
130
100
AcDbEntity
8
0
100
AcDbCircle
10
55.72999999999989
20
-53.040000000000006
30
0
40
0.4065000000000038
210
6.7034987460370438e-64
220
-1.0947644252537636e-47
230
1
0
CIRCLE
5
131
100
AcDbEntity
8
0
100
AcDbCircle
10
55.72999999999989
20
-47.960000000000008
30
0
40
0.40649999999999936
210
0
220
-0
230
1
0
CIRCLE
5
132
100
AcDbEntity
8
0
100
AcDbCircle
10
58.269999999999882
20
-53.04000000000002
30
0
40
0.4065000000000038
210
6.7034987460370438e-64
220
-1.0947644252537636e-47
230
1
0
CIRCLE
5
133
100
AcDbEntity
8
0
100
AcDbCircle
10
58.269999999999882
20
-47.960000000000008
30
0
40
0.40649999999999936
210
0
220
-0
230
1
0
CIRCLE
5
134
100
AcDbEntity
8
0
100
AcDbCircle
10
60.809999999999896
20
-53.04000000000002
30
0
40
0.4065000000000038
210
6.7034987460370438e-64
220
-1.0947644252537636e-47
230
1
0
CIRCLE
5
135
100
AcDbEntity
8
0
100
AcDbCircle
10
60.809999999999896
20
-47.960000000000008
30
0
40
0.40649999999999936
210
0
220
-0
230
1
0
CIRCLE
5
136
100
AcDbEntity
8
0
100
AcDbCircle
10
53.189999999999877
20
-50.500000000000007
30
0
40
0.4065000000000038
210
6.7034987460370438e-64
220
-1.0947644252537636e-47
230
1
0
CIRCLE
5
137
100
AcDbEntity
8
0
100
AcDbCircle
10
27.729999999999826
20
-55.580000000000013
30
0
40
0.4065000000000038
210
6.7034987460370438e-64
220
-1.0947644252537636e-47
230
1
0
CIRCLE
5
138
100
AcDbEntity
8
0
100
AcDbCircle
10
27.729999999999826
20
-53.040000000000006
30
0
40
0.4065000000000038
210
6.7034987460370438e-64
220
-1.0947644252537636e-47
230
1
0
CIRCLE
5
139
100
AcDbEntity
8
0
100
AcDbCircle
10
27.729999999999833
20
-47.960000000000008
30
0
40
0.40649999999999936
210
0
220
-0
230
1
0
CIRCLE
5
140
100
AcDbEntity
8
0
100
AcDbCircle
10
30.269999999999836
20
-53.04000000000002
30
0
40
0.4065000000000038
210
6.7034987460370438e-64
220
-1.0947644252537636e-47
230
1
0
CIRCLE
5
141
100
AcDbEntity
8
0
100
AcDbCircle
10
30.26999999999984
20
-47.960000000000008
30
0
40
0.40649999999999936
210
0
220
-0
230
1
0
CIRCLE
5
142
100
AcDbEntity
8
0
100
AcDbCircle
10
30.26999999999984
20
-45.420000000000009
30
0
40
0.40649999999999936
210
0
220
-0
230
1
0
CIRCLE
5
143
100
AcDbEntity
8
0
100
AcDbCircle
10
32.809999999999846
20
-50.500000000000007
30
0
40
0.4065000000000038
210
6.7034987460370438e-64
220
-1.0947644252537636e-47
230
1
0
CIRCLE
5
144
100
AcDbEntity
8
0
100
AcDbCircle
10
25.189999999999824
20
-53.040000000000006
30
0
40
0.4065000000000038
210
6.7034987460370438e-64
220
-1.0947644252537636e-47
230
1
0
CIRCLE
5
145
100
AcDbEntity
8
0
100
AcDbCircle
10
25.189999999999827
20
-47.960000000000008
30
0
40
0.40649999999999936
210
0
220
-0
230
1
0
CIRCLE
5
146
100
AcDbEntity
8
0
100
AcDbCircle
10
10.269999999999797
20
-55.580000000000013
30
0
40
0.4065000000000038
210
6.7034987460370438e-64
220
-1.0947644252537636e-47
230
1
0
CIRCLE
5
147
100
AcDbEntity
8
0
100
AcDbCircle
10
7.7299999999997917
20
-50.500000000000007
30
0
40
0.4065000000000038
210
6.7034987460370438e-64
220
-1.0947644252537636e-47
230
1
0
CIRCLE
5
148
100
AcDbEntity
8
0
100
AcDbCircle
10
7.7299999999997926
20
-45.420000000000009
30
0
40
0.40649999999999936
210
0
220
-0
230
1
0
CIRCLE
5
149
100
AcDbEntity
8
0
100
AcDbCircle
10
10.269999999999799
20
-50.500000000000007
30
0
40
0.4065000000000038
210
6.7034987460370438e-64
220
-1.0947644252537636e-47
230
1
0
CIRCLE
5
150
100
AcDbEntity
8
0
100
AcDbCircle
10
10.269999999999797
20
-45.420000000000009
30
0
40
0.40649999999999936
210
0
220
-0
230
1
0
CIRCLE
5
151
100
AcDbEntity
8
0
100
AcDbCircle
10
12.809999999999807
20
-50.500000000000007
30
0
40
0.4065000000000038
210
6.7034987460370438e-64
220
-1.0947644252537636e-47
230
1
0
CIRCLE
5
152
100
AcDbEntity
8
0
100
AcDbCircle
10
5.1899999999997846
20
-53.040000000000006
30
0
40
0.4065000000000038
210
6.7034987460370438e-64
220
-1.0947644252537636e-47
230
1
0
CIRCLE
5
153
100
AcDbEntity
8
0
100
AcDbCircle
10
5.1899999999997872
20
-47.960000000000008
30
0
40
0.40649999999999936
210
0
220
-0
230
1
0
ARC
5
154
100
AcDbEntity
8
0
100
AcDbCircle
10
1.999999999999782
20
-57.000000000000028
30
0
40
5.0000000000000195
210
7.778769097326396e-62
220
2.1895288505075267e-47
230
1
100
AcDbArc
50
180
51
269.99999999999989
0
LWPOLYLINE
5
155
100
AcDbEntity
8
0
100
AcDbPolyline
90
13
70
1
43
0.0
10
-3.0000000000002558
20
-82.000000000000028
10
95.000000000000014
20
-82.000000000000028
42
0.41421356237309531
10
115
20
-62.000000000000028
10
115
20
2.8504405071788925
42
0.41421356324529413
10
104.99999997022127
20
12.850440507178874
10
-18.999999999999986
20
12.850440137922309
10
-72.999999926148902
20
12.850440536719406
42
0.41421356453615055
10
-83.000000000000199
20
2.8504405367193986
10
-83.000000000000199
20
-37.149559862077638
42
0.41421356237309503
10
-73.000000000000171
20
-47.149559862077695
10
-33.000000000000242
20
-47.149559862077659
42
-0.41421356237309503
10
-23.000000000000238
20
-57.149559862077659
10
-23.000000000000238
20
-62.000000000000043
42
0.41421356237309503
0
LWPOLYLINE
5
156
100
AcDbEntity
8
0
100
AcDbPolyline
90
4
70
1
43
0.0
10
-73.000000000000199
20
-37.149559463280568
10
-23.000000000000199
20
-37.149559463280568
10
-23.000000000000203
20
2.8504405367194052
10
-73.000000000000199
20
2.8504405367194074
0
CIRCLE
5
157
100
AcDbEntity
8
0
100
AcDbCircle
10
0
20
-37.000000551342964
30
0
40
1.3686108323407595
210
0
220
0
230
1
0
CIRCLE
5
158
100
AcDbEntity
8
0
100
AcDbCircle
10
0
20
0
30
0
40
1.4142135834465195
210
0
220
0
230
1
0
CIRCLE
5
159
100
AcDbEntity
8
0
100
AcDbCircle
10
86.000001281499863
20
0
30
0
40
1.4142135834465195
210
0
220
0
230
1
0
CIRCLE
5
160
100
AcDbEntity
8
0
100
AcDbCircle
10
86.000001281499863
20
-37.000000551342964
30
0
40
1.4142135834465195
210
0
220
0
230
1
0
CIRCLE
5
161
100
AcDbEntity
8
0
100
AcDbCircle
10
-77.000000000000199
20
-17.14955966267912
30
0
40
1.5000000000000002
210
0
220
0
230
1
0
CIRCLE
5
162
100
AcDbEntity
8
0
100
AcDbCircle
10
-48.000000000000171
20
-41.149559463280568
30
0
40
1.5000000000000002
210
0
220
0
230
1
0
CIRCLE
5
163
100
AcDbEntity
8
0
100
AcDbCircle
10
-19.000000000000199
20
-17.149559463280568
30
0
40
1.5000000000000002
210
0
220
0
230
1
0
CIRCLE
5
164
100
AcDbEntity
8
0
100
AcDbCircle
10
-48.000000000000213
20
6.8504405367194057
30
0
40
1.5000000000000002
210
0
220
0
230
1
0
CIRCLE
5
165
100
AcDbEntity
8
0
100
AcDbCircle
10
-27.100000000000239
20
-11.149559463280596
30
0
40
1.5000000000000002
210
0
220
0
230
1
0
CIRCLE
5
166
100
AcDbEntity
8
0
100
AcDbCircle
10
-68.10000000000025
20
-11.149559463280596
30
0
40
1.5000000000000002
210
0
220
0
230
1
0
ENDSEC
0
SECTION
2
OBJECTS
0
DICTIONARY
5
C
100
AcDbDictionary
3
ACAD_GROUP
350
D
3
ACAD_MLINESTYLE
350
17
0
DICTIONARY
5
D
100
AcDbDictionary
0
DICTIONARY
5
1A
330
C
100
AcDbDictionary
0
DICTIONARY
5
17
100
AcDbDictionary
0
ENDSEC
0
EOF
