0
SECTION
2
HEADER
9
$INSUNITS
70
4
9
$ACADVER
1
AC1014
9
$HANDSEED
5
FFFF
0
ENDSEC
0
SECTION
2
TABLES
0
TABLE
2
VPORT
5
8
100
AcDbSymbolTable
0
ENDTAB
0
TABLE
2
LTYPE
5
5
100
AcDbSymbolTable
0
LTYPE
5
14
100
AcDbSymbolTableRecord
100
AcDbLinetypeTableRecord
2
BYBLOCK
70
0
0
LTYPE
5
15
100
AcDbSymbolTableRecord
100
AcDbLinetypeTableRecord
2
BYLAYER
70
0
0
ENDTAB
0
TABLE
2
LAYER
5
2
100
AcDbSymbolTable
70
2
0
LAYER
5
50
100
AcDbSymbolTableRecord
100
AcDbLayerTableRecord
2
0
70
0
6
CONTINUOUS
0
ENDTAB
0
TABLE
2
STYLE
5
3
100
AcDbSymbolTable
70
1
0
STYLE
5
11
100
AcDbSymbolTableRecord
100
AcDbTextStyleTableRecord
2
STANDARD
70
0
0
ENDTAB
0
TABLE
2
VIEW
5
6
100
AcDbSymbolTable
70
0
0
ENDTAB
0
TABLE
2
UCS
5
7
100
AcDbSymbolTable
70
0
0
ENDTAB
0
TABLE
2
APPID
5
9
100
AcDbSymbolTable
70
2
0
APPID
5
12
100
AcDbSymbolTableRecord
100
AcDbRegAppTableRecord
2
ACAD
70
0
0
ENDTAB
0
TABLE
2
DIMSTYLE
5
A
100
AcDbSymbolTable
70
1
0
ENDTAB
0
TABLE
2
BLOCK_RECORD
5
1
100
AcDbSymbolTable
70
1
0
BLOCK_RECORD
5
1F
100
AcDbSymbolTableRecord
100
AcDbBlockTableRecord
2
*MODEL_SPACE
0
BLOCK_RECORD
5
1B
100
AcDbSymbolTableRecord
100
AcDbBlockTableRecord
2
*PAPER_SPACE
0
ENDTAB
0
ENDSEC
0
SECTION
2
BLOCKS
0
BLOCK
5
20
100
AcDbEntity
100
AcDbBlockBegin
2
*MODEL_SPACE
0
ENDBLK
5
21
100
AcDbEntity
100
AcDbBlockEnd
0
BLOCK
5
1C
100
AcDbEntity
100
AcDbBlockBegin
2
*PAPER_SPACE
0
ENDBLK
5
1D
100
AcDbEntity
100
AcDbBlockEnd
0
ENDSEC
0
SECTION
2
ENTITIES
0
CIRCLE
5
100
100
AcDbEntity
8
0
100
AcDbCircle
10
-58.189999999999884
20
-29.349999999999994
30
0
40
0.40650000000000158
210
0
220
-0
230
1
0
CIRCLE
5
101
100
AcDbEntity
8
0
100
AcDbCircle
10
-58.189999999999884
20
-24.269999999999989
30
0
40
0.40650000000000158
210
0
220
-0
230
1
0
CIRCLE
5
102
100
AcDbEntity
8
0
100
AcDbCircle
10
-58.189999999999884
20
-19.189999999999987
30
0
40
0.40650000000000047
210
1.3406997492074085e-63
220
2.1895288505075267e-47
230
1
0
CIRCLE
5
103
100
AcDbEntity
8
0
100
AcDbCircle
10
-58.189999999999891
20
-14.109999999999985
30
0
40
0.40650000000000103
210
-6.7034987460370425e-64
220
-1.0947644252537633e-47
230
1
0
CIRCLE
5
104
100
AcDbEntity
8
0
100
AcDbCircle
10
-65.809999999999903
20
-19.189999999999991
30
0
40
0.40650000000000047
210
1.3406997492074085e-63
220
2.1895288505075267e-47
230
1
0
CIRCLE
5
105
100
AcDbEntity
8
0
100
AcDbCircle
10
-65.809999999999903
20
-26.809999999999995
30
0
40
0.40650000000000158
210
0
220
-0
230
1
0
CIRCLE
5
106
100
AcDbEntity
8
0
100
AcDbCircle
10
-65.809999999999903
20
-16.649999999999988
30
0
40
0.40650000000000047
210
1.3406997492074085e-63
220
2.1895288505075267e-47
230
1
0
CIRCLE
5
107
100
AcDbEntity
8
0
100
AcDbCircle
10
-65.809999999999903
20
-31.889999999999997
30
0
40
0.40649999999999936
210
0
220
-0
230
1
0
CIRCLE
5
108
100
AcDbEntity
8
0
100
AcDbCircle
10
-72.189999999999912
20
-29.349999999999994
30
0
40
0.40650000000000158
210
0
220
-0
230
1
0
CIRCLE
5
109
100
AcDbEntity
8
0
100
AcDbCircle
10
-72.189999999999912
20
-24.269999999999989
30
0
40
0.40650000000000158
210
0
220
-0
230
1
0
CIRCLE
5
110
100
AcDbEntity
8
0
100
AcDbCircle
10
-72.189999999999912
20
-19.189999999999987
30
0
40
0.40650000000000047
210
1.3406997492074085e-63
220
2.1895288505075267e-47
230
1
0
CIRCLE
5
111
100
AcDbEntity
8
0
100
AcDbCircle
10
-72.189999999999927
20
-14.109999999999982
30
0
40
0.40650000000000103
210
-6.7034987460370425e-64
220
-1.0947644252537633e-47
230
1
0
CIRCLE
5
112
100
AcDbEntity
8
0
100
AcDbCircle
10
-79.809999999999931
20
-19.189999999999991
30
0
40
0.40650000000000047
210
1.3406997492074085e-63
220
2.1895288505075267e-47
230
1
0
CIRCLE
5
113
100
AcDbEntity
8
0
100
AcDbCircle
10
-79.809999999999931
20
-26.809999999999995
30
0
40
0.40650000000000158
210
0
220
-0
230
1
0
CIRCLE
5
114
100
AcDbEntity
8
0
100
AcDbCircle
10
-79.809999999999931
20
-16.649999999999988
30
0
40
0.40650000000000047
210
1.3406997492074085e-63
220
2.1895288505075267e-47
230
1
0
CIRCLE
5
115
100
AcDbEntity
8
0
100
AcDbCircle
10
-79.809999999999931
20
-31.889999999999997
30
0
40
0.40649999999999936
210
0
220
-0
230
1
0
CIRCLE
5
116
100
AcDbEntity
8
0
100
AcDbCircle
10
-20.189999999999809
20
-29.349999999999994
30
0
40
0.40650000000000158
210
0
220
-0
230
1
0
CIRCLE
5
117
100
AcDbEntity
8
0
100
AcDbCircle
10
-20.189999999999809
20
-24.269999999999992
30
0
40
0.40650000000000158
210
0
220
-0
230
1
0
CIRCLE
5
118
100
AcDbEntity
8
0
100
AcDbCircle
10
-20.189999999999813
20
-19.189999999999991
30
0
40
0.40650000000000047
210
1.3406997492074085e-63
220
2.1895288505075267e-47
230
1
0
CIRCLE
5
119
100
AcDbEntity
8
0
100
AcDbCircle
10
-20.189999999999813
20
-14.109999999999987
30
0
40
0.40650000000000103
210
-6.7034987460370425e-64
220
-1.0947644252537633e-47
230
1
0
CIRCLE
5
120
100
AcDbEntity
8
0
100
AcDbCircle
10
-27.809999999999832
20
-19.189999999999994
30
0
40
0.40650000000000047
210
1.3406997492074085e-63
220
2.1895288505075267e-47
230
1
0
CIRCLE
5
121
100
AcDbEntity
8
0
100
AcDbCircle
10
-27.809999999999828
20
-26.810000000000002
30
0
40
0.40650000000000158
210
0
220
-0
230
1
0
CIRCLE
5
122
100
AcDbEntity
8
0
100
AcDbCircle
10
-27.809999999999832
20
-16.649999999999988
30
0
40
0.40650000000000047
210
1.3406997492074085e-63
220
2.1895288505075267e-47
230
1
0
CIRCLE
5
123
100
AcDbEntity
8
0
100
AcDbCircle
10
-27.809999999999828
20
-31.890000000000001
30
0
40
0.40649999999999936
210
0
220
-0
230
1
0
CIRCLE
5
124
100
AcDbEntity
8
0
100
AcDbCircle
10
-6.1899999999997846
20
-29.350000000000001
30
0
40
0.40650000000000158
210
0
220
-0
230
1
0
CIRCLE
5
125
100
AcDbEntity
8
0
100
AcDbCircle
10
-6.1899999999997855
20
-24.269999999999996
30
0
40
0.40650000000000158
210
0
220
-0
230
1
0
CIRCLE
5
126
100
AcDbEntity
8
0
100
AcDbCircle
10
-6.1899999999997881
20
-19.189999999999991
30
0
40
0.40650000000000047
210
1.3406997492074085e-63
220
2.1895288505075267e-47
230
1
0
CIRCLE
5
127
100
AcDbEntity
8
0
100
AcDbCircle
10
-6.1899999999997881
20
-14.109999999999987
30
0
40
0.40650000000000103
210
-6.7034987460370425e-64
220
-1.0947644252537633e-47
230
1
0
CIRCLE
5
128
100
AcDbEntity
8
0
100
AcDbCircle
10
-13.809999999999803
20
-19.189999999999998
30
0
40
0.40650000000000047
210
1.3406997492074085e-63
220
2.1895288505075267e-47
230
1
0
CIRCLE
5
129
100
AcDbEntity
8
0
100
AcDbCircle
10
-13.8099999999998
20
-26.810000000000002
30
0
40
0.40650000000000158
210
0
220
-0
230
1
0
CIRCLE
5
130
100
AcDbEntity
8
0
100
AcDbCircle
10
-13.809999999999803
20
-16.649999999999991
30
0
40
0.40650000000000047
210
1.3406997492074085e-63
220
2.1895288505075267e-47
230
1
0
CIRCLE
5
131
100
AcDbEntity
8
0
100
AcDbCircle
10
-13.8099999999998
20
-31.890000000000001
30
0
40
0.40649999999999936
210
0
220
-0
230
1
0
CIRCLE
5
132
100
AcDbEntity
8
0
100
AcDbCircle
10
-5.1899999999997863
20
-50.500000000000007
30
0
40
0.4065000000000038
210
6.7034987460370438e-64
220
1.0947644252537636e-47
230
1
0
CIRCLE
5
133
100
AcDbEntity
8
0
100
AcDbCircle
10
-12.809999999999807
20
-47.960000000000008
30
0
40
0.40649999999999936
210
0
220
-0
230
1
0
CIRCLE
5
134
100
AcDbEntity
8
0
100
AcDbCircle
10
-12.809999999999803
20
-53.04000000000002
30
0
40
0.4065000000000038
210
6.7034987460370438e-64
220
1.0947644252537636e-47
230
1
0
CIRCLE
5
135
100
AcDbEntity
8
0
100
AcDbCircle
10
-10.269999999999799
20
-47.960000000000008
30
0
40
0.40649999999999936
210
0
220
-0
230
1
0
CIRCLE
5
136
100
AcDbEntity
8
0
100
AcDbCircle
10
-10.269999999999797
20
-53.04000000000002
30
0
40
0.4065000000000038
210
6.7034987460370438e-64
220
1.0947644252537636e-47
230
1
0
CIRCLE
5
137
100
AcDbEntity
8
0
100
AcDbCircle
10
-7.7299999999997926
20
-47.960000000000008
30
0
40
0.40649999999999936
210
0
220
-0
230
1
0
CIRCLE
5
138
100
AcDbEntity
8
0
100
AcDbCircle
10
-7.7299999999997908
20
-53.040000000000006
30
0
40
0.4065000000000038
210
6.7034987460370438e-64
220
1.0947644252537636e-47
230
1
0
CIRCLE
5
139
100
AcDbEntity
8
0
100
AcDbCircle
10
-7.7299999999997917
20
-55.580000000000013
30
0
40
0.4065000000000038
210
6.7034987460370438e-64
220
1.0947644252537636e-47
230
1
0
CIRCLE
5
140
100
AcDbEntity
8
0
100
AcDbCircle
10
-25.189999999999824
20
-50.500000000000007
30
0
40
0.4065000000000038
210
6.7034987460370438e-64
220
1.0947644252537636e-47
230
1
0
CIRCLE
5
141
100
AcDbEntity
8
0
100
AcDbCircle
10
-32.809999999999846
20
-47.960000000000008
30
0
40
0.40649999999999936
210
0
220
-0
230
1
0
CIRCLE
5
142
100
AcDbEntity
8
0
100
AcDbCircle
10
-32.809999999999839
20
-53.04000000000002
30
0
40
0.4065000000000038
210
6.7034987460370438e-64
220
1.0947644252537636e-47
230
1
0
CIRCLE
5
143
100
AcDbEntity
8
0
100
AcDbCircle
10
-40.525999999999854
20
-17.576999999999991
30
0
40
0.17499999999999993
210
1.3406997492074085e-63
220
2.1895288505075267e-47
230
1
0
CIRCLE
5
144
100
AcDbEntity
8
0
100
AcDbCircle
10
-30.269999999999836
20
-50.500000000000007
30
0
40
0.4065000000000038
210
6.7034987460370438e-64
220
1.0947644252537636e-47
230
1
0
CIRCLE
5
145
100
AcDbEntity
8
0
100
AcDbCircle
10
-27.729999999999833
20
-45.420000000000009
30
0
40
0.40649999999999936
210
0
220
-0
230
1
0
CIRCLE
5
146
100
AcDbEntity
8
0
100
AcDbCircle
10
-27.729999999999833
20
-50.500000000000007
30
0
40
0.4065000000000038
210
6.7034987460370438e-64
220
1.0947644252537636e-47
230
1
0
CIRCLE
5
147
100
AcDbEntity
8
0
100
AcDbCircle
10
-30.269999999999836
20
-55.580000000000013
30
0
40
0.4065000000000038
210
6.7034987460370438e-64
220
1.0947644252537636e-47
230
1
0
CIRCLE
5
148
100
AcDbEntity
8
0
100
AcDbCircle
10
-53.189999999999877
20
-47.960000000000008
30
0
40
0.40649999999999936
210
0
220
-0
230
1
0
CIRCLE
5
149
100
AcDbEntity
8
0
100
AcDbCircle
10
-53.189999999999877
20
-53.040000000000006
30
0
40
0.4065000000000038
210
6.7034987460370438e-64
220
1.0947644252537636e-47
230
1
0
CIRCLE
5
150
100
AcDbEntity
8
0
100
AcDbCircle
10
-60.809999999999896
20
-50.500000000000007
30
0
40
0.4065000000000038
210
6.7034987460370438e-64
220
1.0947644252537636e-47
230
1
0
CIRCLE
5
151
100
AcDbEntity
8
0
100
AcDbCircle
10
-58.269999999999882
20
-45.420000000000002
30
0
40
0.40649999999999936
210
0
220
-0
230
1
0
CIRCLE
5
152
100
AcDbEntity
8
0
100
AcDbCircle
10
-58.269999999999882
20
-50.500000000000007
30
0
40
0.4065000000000038
210
6.7034987460370438e-64
220
1.0947644252537636e-47
230
1
0
CIRCLE
5
153
100
AcDbEntity
8
0
100
AcDbCircle
10
-55.72999999999989
20
-45.420000000000002
30
0
40
0.40649999999999936
210
0
220
-0
230
1
0
CIRCLE
5
154
100
AcDbEntity
8
0
100
AcDbCircle
10
-55.72999999999989
20
-50.500000000000007
30
0
40
0.4065000000000038
210
6.7034987460370438e-64
220
1.0947644252537636e-47
230
1
0
CIRCLE
5
155
100
AcDbEntity
8
0
100
AcDbCircle
10
-58.269999999999882
20
-55.580000000000013
30
0
40
0.4065000000000038
210
6.7034987460370438e-64
220
1.0947644252537636e-47
230
1
0
CIRCLE
5
156
100
AcDbEntity
8
0
100
AcDbCircle
10
-73.189999999999912
20
-47.960000000000008
30
0
40
0.40649999999999936
210
0
220
-0
230
1
0
CIRCLE
5
157
100
AcDbEntity
8
0
100
AcDbCircle
10
-73.189999999999912
20
-53.040000000000006
30
0
40
0.4065000000000038
210
6.7034987460370438e-64
220
1.0947644252537636e-47
230
1
0
CIRCLE
5
158
100
AcDbEntity
8
0
100
AcDbCircle
10
-80.809999999999945
20
-50.500000000000007
30
0
40
0.4065000000000038
210
6.7034987460370438e-64
220
1.0947644252537636e-47
230
1
0
CIRCLE
5
159
100
AcDbEntity
8
0
100
AcDbCircle
10
-78.269999999999925
20
-45.420000000000002
30
0
40
0.40649999999999936
210
0
220
-0
230
1
0
CIRCLE
5
160
100
AcDbEntity
8
0
100
AcDbCircle
10
-78.269999999999925
20
-50.500000000000007
30
0
40
0.4065000000000038
210
6.7034987460370438e-64
220
1.0947644252537636e-47
230
1
0
CIRCLE
5
161
100
AcDbEntity
8
0
100
AcDbCircle
10
-75.729999999999919
20
-45.420000000000002
30
0
40
0.40649999999999936
210
0
220
-0
230
1
0
CIRCLE
5
162
100
AcDbEntity
8
0
100
AcDbCircle
10
-75.729999999999919
20
-50.500000000000007
30
0
40
0.4065000000000038
210
6.7034987460370438e-64
220
1.0947644252537636e-47
230
1
0
CIRCLE
5
163
100
AcDbEntity
8
0
100
AcDbCircle
10
-78.269999999999925
20
-55.579999999999998
30
0
40
0.4065000000000038
210
6.7034987460370438e-64
220
1.0947644252537636e-47
230
1
0
CIRCLE
5
164
100
AcDbEntity
8
0
100
AcDbCircle
10
-51.889999999999873
20
-13.999999999999984
30
0
40
0.50800000000000112
210
1.3406997492074085e-63
220
2.1895288505075267e-47
230
1
0
CIRCLE
5
165
100
AcDbEntity
8
0
100
AcDbCircle
10
-46.809999999999867
20
-13.999999999999986
30
0
40
0.50800000000000112
210
1.3406997492074085e-63
220
2.1895288505075267e-47
230
1
0
CIRCLE
5
166
100
AcDbEntity
8
0
100
AcDbCircle
10
-41.729999999999848
20
-13.999999999999988
30
0
40
0.50800000000000112
210
1.3406997492074085e-63
220
2.1895288505075267e-47
230
1
0
CIRCLE
5
167
100
AcDbEntity
8
0
100
AcDbCircle
10
-36.649999999999835
20
-13.999999999999989
30
0
40
0.50800000000000112
210
1.3406997492074085e-63
220
2.1895288505075267e-47
230
1
0
CIRCLE
5
168
100
AcDbEntity
8
0
100
AcDbCircle
10
-38.058999999999841
20
-32.905999999999992
30
0
40
0.1749999999999966
210
0
220
-0
230
1
0
CIRCLE
5
169
100
AcDbEntity
8
0
100
AcDbCircle
10
-37.001999999999853
20
-32.905999999999992
30
0
40
0.1749999999999966
210
0
220
-0
230
1
0
CIRCLE
5
170
100
AcDbEntity
8
0
100
AcDbCircle
10
-43.87399999999986
20
-32.905999999999992
30
0
40
0.1749999999999966
210
0
220
-0
230
1
0
CIRCLE
5
171
100
AcDbEntity
8
0
100
AcDbCircle
10
-45.199999999999861
20
-17.399999999999988
30
0
40
0.17500000000000104
210
1.3406997492074085e-63
220
2.1895288505075267e-47
230
1
0
CIRCLE
5
172
100
AcDbEntity
8
0
100
AcDbCircle
10
-38.939999999999849
20
-34.667999999999999
30
0
40
0.1749999999999966
210
0
220
-0
230
1
0
CIRCLE
5
173
100
AcDbEntity
8
0
100
AcDbCircle
10
-36.120999999999846
20
-35.373000000000005
30
0
40
0.17500000000000104
210
1.3406997492074085e-63
220
2.1895288505075267e-47
230
1
0
CIRCLE
5
174
100
AcDbEntity
8
0
100
AcDbCircle
10
-21.495999999999817
20
-23.214999999999996
30
0
40
0.17499999999999882
210
-6.7034987460370425e-64
220
-1.0947644252537633e-47
230
1
0
CIRCLE
5
175
100
AcDbEntity
8
0
100
AcDbCircle
10
-38.587999999999852
20
-27.795999999999992
30
0
40
0.17500000000000104
210
1.3406997492074085e-63
220
2.1895288505075267e-47
230
1
0
CIRCLE
5
176
100
AcDbEntity
8
0
100
AcDbCircle
10
-42.299999999999862
20
-31.586999999999996
30
0
40
0.17500000000000104
210
1.3406997492074085e-63
220
2.1895288505075267e-47
230
1
0
CIRCLE
5
177
100
AcDbEntity
8
0
100
AcDbCircle
10
-54.092999999999883
20
-27.795999999999992
30
0
40
0.17500000000000104
210
1.3406997492074085e-63
220
2.1895288505075267e-47
230
1
0
CIRCLE
5
178
100
AcDbEntity
8
0
100
AcDbCircle
10
-55.85499999999989
20
-16.342999999999989
30
0
40
0.17500000000000104
210
1.3406997492074085e-63
220
2.1895288505075267e-47
230
1
0
CIRCLE
5
179
100
AcDbEntity
8
0
100
AcDbCircle
10
-54.092999999999883
20
-32.729999999999997
30
0
40
0.17500000000000104
210
1.3406997492074085e-63
220
2.1895288505075267e-47
230
1
0
CIRCLE
5
180
100
AcDbEntity
8
0
100
AcDbCircle
10
-50.040999999999876
20
-30.967999999999996
30
0
40
0.17500000000000104
210
1.3406997492074085e-63
220
2.1895288505075267e-47
230
1
0
CIRCLE
5
181
100
AcDbEntity
8
0
100
AcDbCircle
10
-43.87399999999986
20
-34.138999999999996
30
0
40
0.1749999999999966
210
0
220
-0
230
1
0
CIRCLE
5
182
100
AcDbEntity
8
0
100
AcDbCircle
10
-2.9429999999997793
20
-19.896999999999995
30
0
40
0.17500000000000104
210
1.3406997492074085e-63
220
2.1895288505075267e-47
230
1
0
CIRCLE
5
183
100
AcDbEntity
8
0
100
AcDbCircle
10
-3.9999999999997811
20
-20.499999999999993
30
0
40
0.17499999999999882
210
-6.7034987460370425e-64
220
-1.0947644252537633e-47
230
1
0
CIRCLE
5
184
100
AcDbEntity
8
0
100
AcDbCircle
10
-39.899999999999856
20
-23.999999999999993
30
0
40
0.17499999999999882
210
-6.7034987460370425e-64
220
-1.0947644252537633e-47
230
1
0
CIRCLE
5
185
100
AcDbEntity
8
0
100
AcDbCircle
10
-43.399999999999864
20
-31.577999999999996
30
0
40
0.17500000000000104
210
1.3406997492074085e-63
220
2.1895288505075267e-47
230
1
0
CIRCLE
5
186
100
AcDbEntity
8
0
100
AcDbCircle
10
-22.200999999999812
20
-19.690999999999992
30
0
40
0.17500000000000104
210
1.3406997492074085e-63
220
2.1895288505075267e-47
230
1
0
CIRCLE
5
187
100
AcDbEntity
8
0
100
AcDbCircle
10
-56.031999999999897
20
-15.285999999999987
30
0
40
0.17500000000000104
210
1.3406997492074085e-63
220
2.1895288505075267e-47
230
1
0
CIRCLE
5
188
100
AcDbEntity
8
0
100
AcDbCircle
10
-42.185999999999851
20
-28.613999999999997
30
0
40
0.17500000000000104
210
1.3406997492074085e-63
220
2.1895288505075267e-47
230
1
0
CIRCLE
5
189
100
AcDbEntity
8
0
100
AcDbCircle
10
-36.599999999999838
20
-31.586999999999996
30
0
40
0.17500000000000104
210
1.3406997492074085e-63
220
2.1895288505075267e-47
230
1
0
CIRCLE
5
190
100
AcDbEntity
8
0
100
AcDbCircle
10
-3.9999999999997815
20
-27.5
30
0
40
0.17500000000000104
210
1.3406997492074085e-63
220
2.1895288505075267e-47
230
1
0
CIRCLE
5
191
100
AcDbEntity
8
0
100
AcDbCircle
10
-2.9429999999997807
20
-42.000000000000014
30
0
40
0.17500000000000104
210
1.3406997492074085e-63
220
2.1895288505075267e-47
230
1
0
CIRCLE
5
192
100
AcDbEntity
8
0
100
AcDbCircle
10
-54.092999999999883
20
-35.373000000000005
30
0
40
0.17500000000000104
210
1.3406997492074085e-63
220
2.1895288505075267e-47
230
1
0
CIRCLE
5
193
100
AcDbEntity
8
0
100
AcDbCircle
10
-50.040999999999876
20
-19.338999999999992
30
0
40
0.17500000000000104
210
1.3406997492074085e-63
220
2.1895288505075267e-47
230
1
0
CIRCLE
5
194
100
AcDbEntity
8
0
100
AcDbCircle
10
-53.21199999999989
20
-32.024999999999999
30
0
40
0.17500000000000104
210
1.3406997492074085e-63
220
2.1895288505075267e-47
230
1
0
CIRCLE
5
195
100
AcDbEntity
8
0
100
AcDbCircle
10
-55.678999999999888
20
-17.576999999999991
30
0
40
0.17499999999999993
210
1.3406997492074085e-63
220
2.1895288505075267e-47
230
1
0
CIRCLE
5
196
100
AcDbEntity
8
0
100
AcDbCircle
10
-12.049999999999802
20
-27.850000000000001
30
0
40
0.17500000000000104
210
1.3406997492074085e-63
220
2.1895288505075267e-47
230
1
0
CIRCLE
5
197
100
AcDbEntity
8
0
100
AcDbCircle
10
-42.111999999999853
20
-29.733999999999998
30
0
40
0.17500000000000104
210
1.3406997492074085e-63
220
2.1895288505075267e-47
230
1
0
CIRCLE
5
198
100
AcDbEntity
8
0
100
AcDbCircle
10
-28.543999999999826
20
-23.038999999999994
30
0
40
0.17499999999999882
210
-6.7034987460370425e-64
220
-1.0947644252537633e-47
230
1
0
CIRCLE
5
199
100
AcDbEntity
8
0
100
AcDbCircle
10
-36.120999999999846
20
-34.139000000000003
30
0
40
0.1749999999999966
210
0
220
-0
230
1
0
CIRCLE
5
200
100
AcDbEntity
8
0
100
AcDbCircle
10
-26.077999999999825
20
-22.509999999999994
30
0
40
0.17499999999999882
210
-6.7034987460370425e-64
220
-1.0947644252537633e-47
230
1
0
CIRCLE
5
201
100
AcDbEntity
8
0
100
AcDbCircle
10
-37.177999999999848
20
-36.782000000000004
30
0
40
0.17500000000000104
210
1.3406997492074085e-63
220
2.1895288505075267e-47
230
1
0
CIRCLE
5
202
100
AcDbEntity
8
0
100
AcDbCircle
10
-45.649999999999864
20
-23.149999999999995
30
0
40
0.17500000000000104
210
1.3406997492074085e-63
220
2.1895288505075267e-47
230
1
0
CIRCLE
5
203
100
AcDbEntity
8
0
100
AcDbCircle
10
-35.444999999999844
20
-21.585999999999991
30
0
40
0.17500000000000104
210
1.3406997492074085e-63
220
2.1895288505075267e-47
230
1
0
CIRCLE
5
204
100
AcDbEntity
8
0
100
AcDbCircle
10
-43.87399999999986
20
-26.033999999999999
30
0
40
0.17499999999999882
210
-6.7034987460370425e-64
220
-1.0947644252537633e-47
230
1
0
CIRCLE
5
205
100
AcDbEntity
8
0
100
AcDbCircle
10
-34.109999999999829
20
-13.999999999999989
30
0
40
0.50800000000000112
210
1.3406997492074085e-63
220
2.1895288505075267e-47
230
1
0
CIRCLE
5
206
100
AcDbEntity
8
0
100
AcDbCircle
10
-39.189999999999841
20
-13.999999999999988
30
0
40
0.50800000000000112
210
1.3406997492074085e-63
220
2.1895288505075267e-47
230
1
0
CIRCLE
5
207
100
AcDbEntity
8
0
100
AcDbCircle
10
-44.269999999999854
20
-13.999999999999986
30
0
40
0.50800000000000112
210
1.3406997492074085e-63
220
2.1895288505075267e-47
230
1
0
CIRCLE
5
208
100
AcDbEntity
8
0
100
AcDbCircle
10
-49.349999999999866
20
-13.999999999999986
30
0
40
0.50800000000000112
210
1.3406997492074085e-63
220
2.1895288505075267e-47
230
1
0
CIRCLE
5
209
100
AcDbEntity
8
0
100
AcDbCircle
10
-75.729999999999919
20
-55.579999999999998
30
0
40
0.4065000000000038
210
6.7034987460370438e-64
220
1.0947644252537636e-47
230
1
0
CIRCLE
5
210
100
AcDbEntity
8
0
100
AcDbCircle
10
-75.729999999999919
20
-53.040000000000006
30
0
40
0.4065000000000038
210
6.7034987460370438e-64
220
1.0947644252537636e-47
230
1
0
CIRCLE
5
211
100
AcDbEntity
8
0
100
AcDbCircle
10
-75.729999999999919
20
-47.960000000000008
30
0
40
0.40649999999999936
210
0
220
-0
230
1
0
CIRCLE
5
212
100
AcDbEntity
8
0
100
AcDbCircle
10
-78.269999999999925
20
-53.040000000000006
30
0
40
0.4065000000000038
210
6.7034987460370438e-64
220
1.0947644252537636e-47
230
1
0
CIRCLE
5
213
100
AcDbEntity
8
0
100
AcDbCircle
10
-78.269999999999925
20
-47.960000000000008
30
0
40
0.40649999999999936
210
0
220
-0
230
1
0
CIRCLE
5
214
100
AcDbEntity
8
0
100
AcDbCircle
10
-80.809999999999945
20
-53.040000000000006
30
0
40
0.4065000000000038
210
6.7034987460370438e-64
220
1.0947644252537636e-47
230
1
0
CIRCLE
5
215
100
AcDbEntity
8
0
100
AcDbCircle
10
-80.809999999999945
20
-47.960000000000008
30
0
40
0.40649999999999936
210
0
220
-0
230
1
0
CIRCLE
5
216
100
AcDbEntity
8
0
100
AcDbCircle
10
-73.189999999999912
20
-50.500000000000007
30
0
40
0.4065000000000038
210
6.7034987460370438e-64
220
1.0947644252537636e-47
230
1
0
CIRCLE
5
217
100
AcDbEntity
8
0
100
AcDbCircle
10
-55.72999999999989
20
-55.580000000000013
30
0
40
0.4065000000000038
210
6.7034987460370438e-64
220
1.0947644252537636e-47
230
1
0
CIRCLE
5
218
100
AcDbEntity
8
0
100
AcDbCircle
10
-55.72999999999989
20
-53.040000000000006
30
0
40
0.4065000000000038
210
6.7034987460370438e-64
220
1.0947644252537636e-47
230
1
0
CIRCLE
5
219
100
AcDbEntity
8
0
100
AcDbCircle
10
-55.72999999999989
20
-47.960000000000008
30
0
40
0.40649999999999936
210
0
220
-0
230
1
0
CIRCLE
5
220
100
AcDbEntity
8
0
100
AcDbCircle
10
-58.269999999999882
20
-53.04000000000002
30
0
40
0.4065000000000038
210
6.7034987460370438e-64
220
1.0947644252537636e-47
230
1
0
CIRCLE
5
221
100
AcDbEntity
8
0
100
AcDbCircle
10
-58.269999999999882
20
-47.960000000000008
30
0
40
0.40649999999999936
210
0
220
-0
230
1
0
CIRCLE
5
222
100
AcDbEntity
8
0
100
AcDbCircle
10
-60.809999999999896
20
-53.04000000000002
30
0
40
0.4065000000000038
210
6.7034987460370438e-64
220
1.0947644252537636e-47
230
1
0
CIRCLE
5
223
100
AcDbEntity
8
0
100
AcDbCircle
10
-60.809999999999896
20
-47.960000000000008
30
0
40
0.40649999999999936
210
0
220
-0
230
1
0
CIRCLE
5
224
100
AcDbEntity
8
0
100
AcDbCircle
10
-53.189999999999877
20
-50.500000000000007
30
0
40
0.4065000000000038
210
6.7034987460370438e-64
220
1.0947644252537636e-47
230
1
0
CIRCLE
5
225
100
AcDbEntity
8
0
100
AcDbCircle
10
-27.729999999999826
20
-55.580000000000013
30
0
40
0.4065000000000038
210
6.7034987460370438e-64
220
1.0947644252537636e-47
230
1
0
CIRCLE
5
226
100
AcDbEntity
8
0
100
AcDbCircle
10
-27.729999999999826
20
-53.040000000000006
30
0
40
0.4065000000000038
210
6.7034987460370438e-64
220
1.0947644252537636e-47
230
1
0
CIRCLE
5
227
100
AcDbEntity
8
0
100
AcDbCircle
10
-27.729999999999833
20
-47.960000000000008
30
0
40
0.40649999999999936
210
0
220
-0
230
1
0
CIRCLE
5
228
100
AcDbEntity
8
0
100
AcDbCircle
10
-30.269999999999836
20
-53.04000000000002
30
0
40
0.4065000000000038
210
6.7034987460370438e-64
220
1.0947644252537636e-47
230
1
0
CIRCLE
5
229
100
AcDbEntity
8
0
100
AcDbCircle
10
-30.26999999999984
20
-47.960000000000008
30
0
40
0.40649999999999936
210
0
220
-0
230
1
0
CIRCLE
5
230
100
AcDbEntity
8
0
100
AcDbCircle
10
-30.26999999999984
20
-45.420000000000009
30
0
40
0.40649999999999936
210
0
220
-0
230
1
0
CIRCLE
5
231
100
AcDbEntity
8
0
100
AcDbCircle
10
-32.809999999999846
20
-50.500000000000007
30
0
40
0.4065000000000038
210
6.7034987460370438e-64
220
1.0947644252537636e-47
230
1
0
CIRCLE
5
232
100
AcDbEntity
8
0
100
AcDbCircle
10
-25.189999999999824
20
-53.040000000000006
30
0
40
0.4065000000000038
210
6.7034987460370438e-64
220
1.0947644252537636e-47
230
1
0
CIRCLE
5
233
100
AcDbEntity
8
0
100
AcDbCircle
10
-25.189999999999827
20
-47.960000000000008
30
0
40
0.40649999999999936
210
0
220
-0
230
1
0
CIRCLE
5
234
100
AcDbEntity
8
0
100
AcDbCircle
10
-10.269999999999797
20
-55.580000000000013
30
0
40
0.4065000000000038
210
6.7034987460370438e-64
220
1.0947644252537636e-47
230
1
0
CIRCLE
5
235
100
AcDbEntity
8
0
100
AcDbCircle
10
-7.7299999999997917
20
-50.500000000000007
30
0
40
0.4065000000000038
210
6.7034987460370438e-64
220
1.0947644252537636e-47
230
1
0
CIRCLE
5
236
100
AcDbEntity
8
0
100
AcDbCircle
10
-7.7299999999997926
20
-45.420000000000009
30
0
40
0.40649999999999936
210
0
220
-0
230
1
0
CIRCLE
5
237
100
AcDbEntity
8
0
100
AcDbCircle
10
-10.269999999999799
20
-50.500000000000007
30
0
40
0.4065000000000038
210
6.7034987460370438e-64
220
1.0947644252537636e-47
230
1
0
CIRCLE
5
238
100
AcDbEntity
8
0
100
AcDbCircle
10
-10.269999999999797
20
-45.420000000000009
30
0
40
0.40649999999999936
210
0
220
-0
230
1
0
CIRCLE
5
239
100
AcDbEntity
8
0
100
AcDbCircle
10
-12.809999999999807
20
-50.500000000000007
30
0
40
0.4065000000000038
210
6.7034987460370438e-64
220
1.0947644252537636e-47
230
1
0
CIRCLE
5
240
100
AcDbEntity
8
0
100
AcDbCircle
10
-5.1899999999997846
20
-53.040000000000006
30
0
40
0.4065000000000038
210
6.7034987460370438e-64
220
1.0947644252537636e-47
230
1
0
CIRCLE
5
241
100
AcDbEntity
8
0
100
AcDbCircle
10
-5.1899999999997872
20
-47.960000000000008
30
0
40
0.40649999999999936
210
0
220
-0
230
1
0
CIRCLE
5
242
100
AcDbEntity
8
0
100
AcDbCircle
10
-13.8099999999998
20
-29.350000000000005
30
0
40
0.40650000000000158
210
0
220
-0
230
1
0
CIRCLE
5
243
100
AcDbEntity
8
0
100
AcDbCircle
10
-13.809999999999803
20
-14.109999999999989
30
0
40
0.40650000000000103
210
-6.7034987460370425e-64
220
-1.0947644252537633e-47
230
1
0
CIRCLE
5
244
100
AcDbEntity
8
0
100
AcDbCircle
10
-13.809999999999803
20
-24.269999999999996
30
0
40
0.40650000000000158
210
0
220
-0
230
1
0
CIRCLE
5
245
100
AcDbEntity
8
0
100
AcDbCircle
10
-13.8099999999998
20
-21.73
30
0
40
0.40650000000000158
210
0
220
-0
230
1
0
CIRCLE
5
246
100
AcDbEntity
8
0
100
AcDbCircle
10
-6.1899999999997881
20
-16.649999999999988
30
0
40
0.40650000000000047
210
1.3406997492074085e-63
220
2.1895288505075267e-47
230
1
0
CIRCLE
5
247
100
AcDbEntity
8
0
100
AcDbCircle
10
-6.1899999999997855
20
-21.72999999999999
30
0
40
0.40650000000000158
210
0
220
-0
230
1
0
CIRCLE
5
248
100
AcDbEntity
8
0
100
AcDbCircle
10
-6.1899999999997837
20
-26.809999999999995
30
0
40
0.40650000000000158
210
0
220
-0
230
1
0
CIRCLE
5
249
100
AcDbEntity
8
0
100
AcDbCircle
10
-6.1899999999997837
20
-31.890000000000001
30
0
40
0.40649999999999936
210
0
220
-0
230
1
0
CIRCLE
5
250
100
AcDbEntity
8
0
100
AcDbCircle
10
-27.809999999999828
20
-29.350000000000001
30
0
40
0.40650000000000158
210
0
220
-0
230
1
0
CIRCLE
5
251
100
AcDbEntity
8
0
100
AcDbCircle
10
-27.809999999999832
20
-14.109999999999987
30
0
40
0.40650000000000103
210
-6.7034987460370425e-64
220
-1.0947644252537633e-47
230
1
0
CIRCLE
5
252
100
AcDbEntity
8
0
100
AcDbCircle
10
-27.809999999999828
20
-24.269999999999996
30
0
40
0.40650000000000158
210
0
220
-0
230
1
0
CIRCLE
5
253
100
AcDbEntity
8
0
100
AcDbCircle
10
-27.809999999999832
20
-21.729999999999997
30
0
40
0.40650000000000158
210
0
220
-0
230
1
0
CIRCLE
5
254
100
AcDbEntity
8
0
100
AcDbCircle
10
-20.189999999999813
20
-16.649999999999988
30
0
40
0.40650000000000047
210
1.3406997492074085e-63
220
2.1895288505075267e-47
230
1
0
CIRCLE
5
255
100
AcDbEntity
8
0
100
AcDbCircle
10
-20.189999999999813
20
-21.72999999999999
30
0
40
0.40650000000000158
210
0
220
-0
230
1
0
CIRCLE
5
256
100
AcDbEntity
8
0
100
AcDbCircle
10
-20.189999999999809
20
-26.809999999999992
30
0
40
0.40650000000000158
210
0
220
-0
230
1
0
CIRCLE
5
257
100
AcDbEntity
8
0
100
AcDbCircle
10
-20.189999999999809
20
-31.890000000000001
30
0
40
0.40649999999999936
210
0
220
-0
230
1
0
CIRCLE
5
258
100
AcDbEntity
8
0
100
AcDbCircle
10
-79.809999999999931
20
-29.349999999999994
30
0
40
0.40650000000000158
210
0
220
-0
230
1
0
CIRCLE
5
259
100
AcDbEntity
8
0
100
AcDbCircle
10
-79.809999999999931
20
-14.109999999999985
30
0
40
0.40650000000000103
210
-6.7034987460370425e-64
220
-1.0947644252537633e-47
230
1
0
CIRCLE
5
260
100
AcDbEntity
8
0
100
AcDbCircle
10
-79.809999999999931
20
-24.269999999999996
30
0
40
0.40650000000000158
210
0
220
-0
230
1
0
CIRCLE
5
261
100
AcDbEntity
8
0
100
AcDbCircle
10
-79.809999999999931
20
-21.72999999999999
30
0
40
0.40650000000000158
210
0
220
-0
230
1
0
CIRCLE
5
262
100
AcDbEntity
8
0
100
AcDbCircle
10
-72.189999999999927
20
-16.649999999999984
30
0
40
0.40650000000000047
210
1.3406997492074085e-63
220
2.1895288505075267e-47
230
1
0
CIRCLE
5
263
100
AcDbEntity
8
0
100
AcDbCircle
10
-72.189999999999912
20
-21.72999999999999
30
0
40
0.40650000000000158
210
0
220
-0
230
1
0
CIRCLE
5
264
100
AcDbEntity
8
0
100
AcDbCircle
10
-72.189999999999912
20
-26.809999999999992
30
0
40
0.40650000000000158
210
0
220
-0
230
1
0
CIRCLE
5
265
100
AcDbEntity
8
0
100
AcDbCircle
10
-72.189999999999912
20
-31.889999999999997
30
0
40
0.40649999999999936
210
0
220
-0
230
1
0
CIRCLE
5
266
100
AcDbEntity
8
0
100
AcDbCircle
10
-65.809999999999903
20
-29.349999999999994
30
0
40
0.40650000000000158
210
0
220
-0
230
1
0
CIRCLE
5
267
100
AcDbEntity
8
0
100
AcDbCircle
10
-65.809999999999903
20
-14.109999999999987
30
0
40
0.40650000000000103
210
-6.7034987460370425e-64
220
-1.0947644252537633e-47
230
1
0
CIRCLE
5
268
100
AcDbEntity
8
0
100
AcDbCircle
10
-65.809999999999903
20
-24.269999999999996
30
0
40
0.40650000000000158
210
0
220
-0
230
1
0
CIRCLE
5
269
100
AcDbEntity
8
0
100
AcDbCircle
10
-65.809999999999903
20
-21.72999999999999
30
0
40
0.40650000000000158
210
0
220
-0
230
1
0
CIRCLE
5
270
100
AcDbEntity
8
0
100
AcDbCircle
10
-58.189999999999891
20
-16.649999999999988
30
0
40
0.40650000000000047
210
1.3406997492074085e-63
220
2.1895288505075267e-47
230
1
0
CIRCLE
5
271
100
AcDbEntity
8
0
100
AcDbCircle
10
-58.189999999999884
20
-21.72999999999999
30
0
40
0.40650000000000158
210
0
220
-0
230
1
0
CIRCLE
5
272
100
AcDbEntity
8
0
100
AcDbCircle
10
-58.189999999999884
20
-26.809999999999992
30
0
40
0.40650000000000158
210
0
220
-0
230
1
0
CIRCLE
5
273
100
AcDbEntity
8
0
100
AcDbCircle
10
-58.189999999999884
20
-31.889999999999997
30
0
40
0.40649999999999936
210
0
220
-0
230
1
0
CIRCLE
5
274
100
AcDbEntity
8
0
100
AcDbCircle
10
-85.999999999999957
20
-11.999999999999984
30
0
40
1.400000000000003
210
1.3406997492074085e-63
220
2.1895288505075267e-47
230
1
0
CIRCLE
5
275
100
AcDbEntity
8
0
100
AcDbCircle
10
2.2525149617622043e-13
20
-37.000000000000007
30
0
40
1.4000000000000037
210
2.4651903288156624e-32
220
-2.1937214885201326e-48
230
1
0
CIRCLE
5
276
100
AcDbEntity
8
0
100
AcDbCircle
10
-42.999999999999858
20
-58.000000000000028
30
0
40
1.3999999999999995
210
1.3406997492074085e-63
220
2.1895288505075267e-47
230
1
0
CIRCLE
5
277
100
AcDbEntity
8
0
100
AcDbCircle
10
2.2747619406554535e-13
20
-11.999999999999989
30
0
40
1.400000000000003
210
1.3406997492074085e-63
220
2.1895288505075267e-47
230
1
0
CIRCLE
5
278
100
AcDbEntity
8
0
100
AcDbCircle
10
-85.999999999999957
20
-37
30
0
40
1.4000000000000037
210
2.4651903288156624e-32
220
-2.1937214885201326e-48
230
1
0
LWPOLYLINE
5
279
100
AcDbEntity
8
0
100
AcDbPolyline
90
8
70
1
43
0.0
10
-88.999999999999972
20
-10.999999999999982
42
-0.41421356237309598
10
-86.999999999999972
20
-8.9999999999999893
10
1.0000000000002276
20
-8.9999999999999858
42
-0.41421356237309703
10
3.000000000000234
20
-10.999999999999996
10
3.0000000000002212
20
-57.000000000000028
42
-0.41421356237309664
10
-1.9999999999997797
20
-62.000000000000021
10
-83.999999999999943
20
-62
42
-0.41421356237309243
10
-88.999999999999972
20
-57.000000000000014
0
CIRCLE
5
280
100
AcDbEntity
8
0
100
AcDbCircle
10
-29.000000432133675
20
-50.50000075250864
30
0
40
9
210
0
220
0
230
1
0
CIRCLE
5
281
100
AcDbEntity
8
0
100
AcDbCircle
10
-8.9999999999998828
20
-50.500000764034382
30
0
40
9
210
0
220
0
230
1
0
CIRCLE
5
282
100
AcDbEntity
8
0
100
AcDbCircle
10
2.2525149617622043e-13
20
-37.000000000000007
30
0
40
1.4000000000000037
210
2.4651903288156624e-32
220
-2.1937214885201326e-48
230
1
0
CIRCLE
5
283
100
AcDbEntity
8
0
100
AcDbCircle
10
2.2747619406554535e-13
20
-11.999999999999989
30
0
40
1.400000000000003
210
1.3406997492074085e-63
220
2.1895288505075267e-47
230
1
0
CIRCLE
5
284
100
AcDbEntity
8
0
100
AcDbCircle
10
-85.999999999999957
20
-37
30
0
40
1.4000000000000057
210
2.4651903288156589e-32
220
-2.1937214885201326e-48
230
1
0
CIRCLE
5
285
100
AcDbEntity
8
0
100
AcDbCircle
10
-85.999999999999957
20
-11.999999999999984
30
0
40
1.4000000000000057
210
1.3406997492074058e-63
220
2.1895288505075267e-47
230
1
0
LWPOLYLINE
5
286
100
AcDbEntity
8
0
100
AcDbPolyline
90
8
70
1
43
0.0
10
8.0000000000002345
20
-10.999999999999996
10
8.000000000000222
20
-57.000000000000021
42
-0.41421356237309614
10
-1.9999999999997797
20
-67.000000000000014
10
-84.000000000000028
20
-67
42
-0.41421356237309215
10
-93.999999999999972
20
-57.000000000000014
10
-93.999999999999972
20
-11
42
-0.41421356237309598
10
-86.999999999999972
20
-3.9999999999999893
10
1.0000000000002147
20
-3.9999999999999867
42
-0.41421356237309614
0
CIRCLE
5
287
100
AcDbEntity
8
0
100
AcDbCircle
10
-57.000000432133675
20
-50.50000075250864
30
0
40
9
210
0
220
0
230
1
0
CIRCLE
5
288
100
AcDbEntity
8
0
100
AcDbCircle
10
-77.000000432133675
20
-50.50000075250864
30
0
40
9
210
0
220
0
230
1
0
ENDSEC
0
SECTION
2
OBJECTS
0
DICTIONARY
5
C
100
AcDbDictionary
3
ACAD_GROUP
350
D
3
ACAD_MLINESTYLE
350
17
0
DICTIONARY
5
D
100
AcDbDictionary
0
DICTIONARY
5
1A
330
C
100
AcDbDictionary
0
DICTIONARY
5
17
100
AcDbDictionary
0
ENDSEC
0
EOF
